<svg height="512" viewBox="0 0 128 128" width="512" xmlns="http://www.w3.org/2000/svg"><g><path d="m71.558 34.26v-12a1.75 1.75 0 0 0 -1.75-1.75h-35a1.749 1.749 0 0 0 -1.75 1.75v12a1.749 1.749 0 0 0 1.75 1.75h35a1.75 1.75 0 0 0 1.75-1.75zm-3.5-1.75h-31.5v-8.5h31.5z"/><path d="m121.419 96.7-17.987-17.983a1.8 1.8 0 0 0 -2.278-.158l-2.169-2.168a21.582 21.582 0 0 0 -11.115-31.974v-37.917a1.75 1.75 0 0 0 -1.75-1.75h-70.62a10.762 10.762 0 0 0 -10.75 10.75v97a10.762 10.762 0 0 0 10.75 10.75h70.615a1.749 1.749 0 0 0 1.75-1.75l.005-36.264a21.391 21.391 0 0 0 4.4-2.129l2.164 2.169a1.745 1.745 0 0 0 .16 2.28l17.987 17.987a6.258 6.258 0 0 0 8.838 0 6.25 6.25 0 0 0 0-8.839zm-22.569-31.881a18.138 18.138 0 1 1 -5.317-12.837 18.032 18.032 0 0 1 5.317 12.837zm-83.35-56.569h1.25v93.5h-1.25a10.7 10.7 0 0 0 -7.25 2.836v-89.086a7.258 7.258 0 0 1 7.25-7.25zm0 111.5a7.25 7.25 0 0 1 0-14.5h68.865v5.5h-69.115a1.75 1.75 0 0 0 0 3.5h69.115v5.5zm68.87-18h-64.12v-93.5h64.12v35.25a21.65 21.65 0 1 0 0 42.64zm11.638-21.619c.3-.3.563-.616.841-.927l1.811 1.811-1.769 1.768-1.808-1.813c.31-.277.628-.543.925-.839zm22.937 22.937a2.753 2.753 0 0 1 -3.89 0l-16.749-16.75 3.889-3.889 16.75 16.75a2.751 2.751 0 0 1 0 3.889z"/><path d="m69.627 53.751a15.654 15.654 0 1 0 22.138 0 15.547 15.547 0 0 0 -22.138 0zm19.663 2.474a12.169 12.169 0 1 1 -8.59-3.553 12.169 12.169 0 0 1 8.59 3.553z"/><path d="m86.122 72.318a1.744 1.744 0 0 0 1.2-.473l.2-.2a9.653 9.653 0 0 0 2.428-4.079 1.75 1.75 0 0 0 -3.357-.992 6.127 6.127 0 0 1 -1.54 2.591l-.129.126a1.75 1.75 0 0 0 1.2 3.026z"/></g></svg>