<svg id="Capa_1" enable-background="new 0 0 512 512" height="512" viewBox="0 0 512 512" width="512" xmlns="http://www.w3.org/2000/svg"><g><path d="m454.75 452v-452h-360c-20.678 0-37.5 16.823-37.5 37.5v37.5h15v-37.5c0-12.407 10.094-22.5 22.5-22.5h7.5v422h-7.5c-8.435 0-16.229 2.8-22.5 7.518v-354.518h-15v384.629c.07 20.619 16.865 37.371 37.5 37.371h285.001v-15h-285.001c-12.406 0-22.5-10.094-22.5-22.5s10.094-22.5 22.5-22.5h330v15.003l-322.503.127.006 15 322.497-.127v14.997h-29.999v15h59.999v-15h-15v-45zm-337.5-15v-422h322.5v422z"/><path d="m379.75 30h15v15h-15z"/><path d="m409.75 30h15v15h-15z"/><path d="m386.711 152.834-7.844 2.47c-5.503 1.734-11.543-1.092-13.754-6.431-2.211-5.338.062-11.606 5.176-14.271l7.293-3.801-4.454-6.913c-8.659-13.437-20.335-25.113-33.767-33.767l-6.913-4.454-3.801 7.292c-2.664 5.113-8.931 7.387-14.271 5.176-5.339-2.211-8.163-8.252-6.431-13.753l2.472-7.846-8.04-1.738c-15.644-3.382-32.114-3.382-47.754 0l-8.039 1.738 2.471 7.845c1.732 5.501-1.093 11.543-6.432 13.754-5.338 2.211-11.605-.062-14.271-5.176l-3.801-7.292-6.912 4.454c-13.433 8.654-25.108 20.33-33.768 33.767l-4.454 6.913 7.292 3.801c5.113 2.665 7.388 8.934 5.177 14.271-2.213 5.338-8.251 8.161-13.755 6.432l-7.845-2.471-1.739 8.04c-1.69 7.82-2.548 15.854-2.548 23.877 0 8.024.857 16.057 2.548 23.877l1.739 8.04 7.845-2.471c5.505-1.733 11.544 1.094 13.755 6.431 2.211 5.338-.062 11.606-5.176 14.271l-7.293 3.8 4.454 6.913c8.654 13.432 20.331 25.108 33.767 33.767l6.913 4.455 3.801-7.293c2.664-5.113 8.937-7.386 14.271-5.176 5.339 2.211 8.164 8.253 6.432 13.754l-2.471 7.845 8.038 1.739c7.818 1.691 15.853 2.549 23.878 2.549s16.06-.857 23.878-2.549l8.039-1.739-2.472-7.845c-1.732-5.501 1.092-11.542 6.431-13.753 5.338-2.211 11.607.062 14.271 5.176l3.801 7.293 6.913-4.455c13.437-8.658 25.113-20.335 33.767-33.767l4.453-6.913-7.291-3.8c-5.113-2.665-7.388-8.934-5.177-14.271 2.213-5.339 8.254-8.166 13.753-6.432l7.846 2.472 1.739-8.04c1.691-7.823 2.549-15.856 2.549-23.877 0-8.026-.857-16.06-2.55-23.878zm-11.701 45.821c-10.196.149-19.626 6.266-23.754 16.232-4.127 9.962-1.786 20.953 5.314 28.269-5.575 7.424-12.238 14.087-19.665 19.665-7.315-7.101-18.304-9.441-28.27-5.315-9.966 4.128-16.082 13.558-16.231 23.755-9.198 1.316-18.611 1.316-27.81 0-.149-10.198-6.266-19.627-16.231-23.755-9.964-4.126-20.952-1.787-28.269 5.314-7.426-5.577-14.09-12.24-19.665-19.665 7.101-7.316 9.441-18.306 5.314-28.27-4.128-9.966-13.557-16.082-23.754-16.23-.658-4.6-.99-9.254-.99-13.905s.332-9.305.99-13.905c10.196-.149 19.626-6.266 23.754-16.232 4.127-9.962 1.786-20.952-5.314-28.269 5.577-7.427 12.24-14.09 19.665-19.665 7.315 7.101 18.304 9.442 28.269 5.315 9.966-4.128 16.082-13.557 16.231-23.754 9.199-1.317 18.606-1.317 27.81 0 .149 10.197 6.266 19.626 16.231 23.754 9.965 4.126 20.953 1.786 28.27-5.315 7.425 5.575 14.088 12.238 19.665 19.665-7.102 7.316-9.441 18.306-5.314 28.27 4.128 9.966 13.557 16.082 23.754 16.231.658 4.598.99 9.253.99 13.905 0 4.65-.332 9.304-.99 13.905z"/><path d="m278.5 132.25c-28.948 0-52.5 23.551-52.5 52.5s23.552 52.5 52.5 52.5 52.5-23.551 52.5-52.5-23.552-52.5-52.5-52.5zm0 90c-20.678 0-37.5-16.822-37.5-37.5s16.822-37.5 37.5-37.5 37.5 16.822 37.5 37.5-16.822 37.5-37.5 37.5z"/><path d="m214.75 334.75h56.25v15h-56.25z"/><path d="m237.249 364.75h82.502v15h-82.502z"/><path d="m286 334.75h56.25v15h-56.25z"/></g></svg>